<svg xmlns="http://www.w3.org/2000/svg" viewBox="0 0 512 512" role="img" aria-label="شعار فوراً">
  <defs>
    <linearGradient id="bg" x1="80" y1="52" x2="432" y2="462" gradientUnits="userSpaceOnUse">
      <stop stop-color="#0b2440"/>
      <stop offset=".55" stop-color="#146c94"/>
      <stop offset="1" stop-color="#18a889"/>
    </linearGradient>
    <linearGradient id="flash" x1="186" y1="96" x2="360" y2="398" gradientUnits="userSpaceOnUse">
      <stop stop-color="#ffe9a6"/>
      <stop offset="1" stop-color="#f2b632"/>
    </linearGradient>
    <filter id="s" x="-20%" y="-20%" width="140%" height="140%" color-interpolation-filters="sRGB">
      <feDropShadow dx="0" dy="18" stdDeviation="18" flood-color="#082038" flood-opacity=".28"/>
    </filter>
  </defs>
  <rect width="512" height="512" rx="128" fill="url(#bg)"/>
  <circle cx="396" cy="108" r="42" fill="#ffffff" opacity=".1"/>
  <circle cx="94" cy="394" r="54" fill="#ffffff" opacity=".08"/>
  <g filter="url(#s)">
    <path d="M149 162c32-34 73-51 123-51 76 0 127 44 127 108 0 70-58 119-139 119h-48v48c0 15-12 27-27 27h-36V269h107c40 0 64-19 64-48 0-27-21-44-55-44-28 0-52 10-72 31l-44-46Z" fill="#fff"/>
    <path d="M341 91 198 280h77l-38 156 138-204h-76l42-141Z" fill="url(#flash)"/>
    <path d="M126 397h150c16 0 29-13 29-29v-1h73c15 0 27 12 27 27s-12 27-27 27H126c-14 0-25-11-25-25s11-25 25-25Z" fill="#fff" opacity=".93"/>
  </g>
  <circle cx="390" cy="388" r="42" fill="#18a889" stroke="#fff" stroke-width="14"/>
</svg>
