<svg xmlns="http://www.w3.org/2000/svg" viewBox="0 0 720 420" role="img" aria-label="خدماتي">
  <defs>
    <linearGradient id="panel" x1="80" y1="36" x2="640" y2="382" gradientUnits="userSpaceOnUse">
      <stop stop-color="#FFFFFF"/>
      <stop offset="1" stop-color="#EAF7F4"/>
    </linearGradient>
    <linearGradient id="brand" x1="182" y1="70" x2="520" y2="350" gradientUnits="userSpaceOnUse">
      <stop stop-color="#0F5F8B"/>
      <stop offset="1" stop-color="#18A889"/>
    </linearGradient>
    <filter id="s" x="-20%" y="-20%" width="140%" height="140%" color-interpolation-filters="sRGB">
      <feDropShadow dx="0" dy="18" stdDeviation="22" flood-color="#0B2440" flood-opacity=".16"/>
    </filter>
  </defs>
  <rect width="720" height="420" fill="none"/>
  <g filter="url(#s)">
    <rect x="92" y="58" width="536" height="304" rx="54" fill="url(#panel)"/>
    <rect x="132" y="102" width="250" height="48" rx="24" fill="#EEF4F8"/>
    <circle cx="158" cy="126" r="13" fill="#18A889"/>
    <rect x="184" y="118" width="158" height="16" rx="8" fill="#90A4B7"/>
    <rect x="132" y="178" width="118" height="118" rx="32" fill="#FFFFFF" stroke="#DCE7EF"/>
    <rect x="290" y="178" width="118" height="118" rx="32" fill="#FFFFFF" stroke="#DCE7EF"/>
    <rect x="448" y="178" width="118" height="118" rx="32" fill="#FFFFFF" stroke="#DCE7EF"/>
    <path d="M174 239h35l-4-24h-27l-4 24Z" fill="#0F5F8B"/>
    <path d="M176 244h31v17h-31z" fill="#18A889"/>
    <circle cx="184" cy="263" r="7" fill="#0B2440"/>
    <circle cx="201" cy="263" r="7" fill="#0B2440"/>
    <path d="M332 221h34l-7 57h-20l-7-57Z" fill="#F6B21A"/>
    <path d="M326 213h46" stroke="#0F5F8B" stroke-width="12" stroke-linecap="round"/>
    <path d="M505 214v66M473 247h66" stroke="#18A889" stroke-width="16" stroke-linecap="round"/>
    <circle cx="506" cy="247" r="23" fill="#0F5F8B"/>
    <path d="M494 248h24M506 236v24" stroke="#fff" stroke-width="8" stroke-linecap="round"/>
  </g>
  <circle cx="608" cy="96" r="34" fill="#F6B21A" opacity=".28"/>
  <circle cx="112" cy="330" r="28" fill="#18A889" opacity=".18"/>
</svg>
