<svg xmlns="http://www.w3.org/2000/svg" viewBox="0 0 512 512" role="img" aria-label="Khadamati logo">
  <defs>
    <linearGradient id="kh-bg" x1="48" y1="32" x2="464" y2="480" gradientUnits="userSpaceOnUse">
      <stop stop-color="#0A3F66"/>
      <stop offset=".52" stop-color="#087E94"/>
      <stop offset="1" stop-color="#12A783"/>
    </linearGradient>
    <linearGradient id="kh-gold" x1="328" y1="82" x2="416" y2="218" gradientUnits="userSpaceOnUse">
      <stop stop-color="#FFE6A0"/>
      <stop offset="1" stop-color="#F3B323"/>
    </linearGradient>
    <filter id="kh-shadow" x="-30%" y="-30%" width="160%" height="160%">
      <feDropShadow dx="0" dy="16" stdDeviation="16" flood-color="#062E46" flood-opacity=".30"/>
    </filter>
  </defs>
  <rect width="512" height="512" rx="128" fill="url(#kh-bg)"/>
  <path d="M58 391c103 46 205 41 306-14 37-20 70-25 98-14v61c-80 44-170 55-269 31-57-14-102-17-135-9v-55Z" fill="#fff" opacity=".08"/>
  <circle cx="412" cy="101" r="44" fill="#fff" opacity=".09"/>
  <g filter="url(#kh-shadow)" fill="none" stroke-linecap="round" stroke-linejoin="round">
    <path d="M151 118v276" stroke="#fff" stroke-width="76"/>
    <path d="m349 126-191 164m9-8 194 118" stroke="#fff" stroke-width="72"/>
  </g>
  <path d="m365 68 13 39 39 13-39 13-13 39-13-39-39-13 39-13 13-39Z" fill="url(#kh-gold)"/>
  <circle cx="402" cy="386" r="45" fill="#11A684" stroke="#fff" stroke-width="13"/>
  <path d="M383 386h38m-19-19v38" stroke="#fff" stroke-width="16" stroke-linecap="round"/>
</svg>
