<svg xmlns="http://www.w3.org/2000/svg" viewBox="0 0 512 512" role="img" aria-label="شعار فوراً">
  <defs>
    <linearGradient id="bg" x1="70" y1="50" x2="440" y2="462" gradientUnits="userSpaceOnUse">
      <stop stop-color="#073B5A"/>
      <stop offset=".52" stop-color="#0F8A9D"/>
      <stop offset="1" stop-color="#18A889"/>
    </linearGradient>
    <linearGradient id="bolt" x1="202" y1="100" x2="342" y2="402" gradientUnits="userSpaceOnUse">
      <stop stop-color="#FFE9A6"/>
      <stop offset="1" stop-color="#F6B21A"/>
    </linearGradient>
    <filter id="shadow" x="-20%" y="-20%" width="140%" height="140%" color-interpolation-filters="sRGB">
      <feDropShadow dx="0" dy="18" stdDeviation="18" flood-color="#072E45" flood-opacity=".28"/>
    </filter>
  </defs>
  <rect width="512" height="512" rx="132" fill="url(#bg)"/>
  <path d="M75 378c80 35 166 34 258-4 47-19 83-24 108-13v55c-91 46-182 48-274 5-38-18-69-24-92-18v-25Z" fill="#fff" opacity=".10"/>
  <circle cx="391" cy="112" r="45" fill="#fff" opacity=".10"/>
  <circle cx="104" cy="389" r="52" fill="#fff" opacity=".08"/>
  <g filter="url(#shadow)">
    <path d="M132 344V170c0-30 24-54 54-54h112c70 0 118 42 118 103 0 66-51 108-128 108h-60v54c0 12-10 22-22 22h-52c-12 0-22-10-22-22v-37Zm96-102h62c24 0 40-13 40-32 0-18-15-30-39-30h-63v62Z" fill="#fff"/>
    <path d="M344 82 205 276h75l-37 154 141-207h-76l36-141Z" fill="url(#bolt)"/>
    <path d="M104 409h185c17 0 31-14 31-31v-12h61c15 0 27 12 27 27s-12 27-27 27H104c-15 0-27-12-27-27s12-27 27-27Z" fill="#fff" opacity=".92"/>
  </g>
  <circle cx="394" cy="386" r="43" fill="#18A889" stroke="#fff" stroke-width="14"/>
  <path d="M374 387h40M394 367v40" stroke="#fff" stroke-width="18" stroke-linecap="round"/>
</svg>
